<svg xmlns="http://www.w3.org/2000/svg" width="400" height="280" viewBox="0 0 400 280">
  <defs>
    <linearGradient id="g6" x1="0%" y1="0%" x2="100%" y2="100%">
      <stop offset="0%" style="stop-color:#1f1520;stop-opacity:1" />
      <stop offset="100%" style="stop-color:#150e18;stop-opacity:1" />
    </linearGradient>
  </defs>
  <rect width="400" height="280" fill="url(#g6)" rx="8"/>
  <rect x="24" y="24" width="180" height="8" rx="4" fill="#FF4D6A" opacity="0.6"/>
  <rect x="24" y="40" width="110" height="6" rx="3" fill="#FF4D6A" opacity="0.3"/>
  <!-- Grid lines -->
  <rect x="30" y="80" width="150" height="100" rx="4" fill="none" stroke="#FF4D6A" stroke-width="1" opacity="0.3"/>
  <line x1="80" y1="80" x2="80" y2="180" stroke="#FF4D6A" stroke-width="1" opacity="0.15"/>
  <line x1="130" y1="80" x2="130" y2="180" stroke="#FF4D6A" stroke-width="1" opacity="0.15"/>
  <line x1="30" y1="113" x2="180" y2="113" stroke="#FF4D6A" stroke-width="1" opacity="0.15"/>
  <line x1="30" y1="147" x2="180" y2="147" stroke="#FF4D6A" stroke-width="1" opacity="0.15"/>
  <text x="88" y="100" font-family="monospace" font-size="8" fill="#FF4D6A" opacity="0.5">grid</text>
  <!-- Flexbox -->
  <rect x="210" y="80" width="160" height="40" rx="4" fill="none" stroke="#4D8BFF" stroke-width="1" opacity="0.3"/>
  <rect x="218" y="88" width="30" height="24" rx="3" fill="#4D8BFF" opacity="0.15"/>
  <rect x="254" y="88" width="50" height="24" rx="3" fill="#4D8BFF" opacity="0.15"/>
  <rect x="310" y="88" width="40" height="24" rx="3" fill="#4D8BFF" opacity="0.15"/>
  <text x="260" y="140" font-family="monospace" font-size="8" fill="#4D8BFF" opacity="0.5">flex</text>
  <rect x="24" y="210" width="220" height="5" rx="2.5" fill="#ffffff" opacity="0.06"/>
  <rect x="24" y="224" width="180" height="5" rx="2.5" fill="#ffffff" opacity="0.04"/>
  <rect x="24" y="252" width="140" height="5" rx="2.5" fill="#ffffff" opacity="0.04"/>
</svg>
