<svg xmlns="http://www.w3.org/2000/svg" width="400" height="280" viewBox="0 0 400 280">
  <defs>
    <linearGradient id="g5" x1="0%" y1="0%" x2="100%" y2="100%">
      <stop offset="0%" style="stop-color:#1a1030;stop-opacity:1" />
      <stop offset="100%" style="stop-color:#0f0a20;stop-opacity:1" />
    </linearGradient>
  </defs>
  <rect width="400" height="280" fill="url(#g5)" rx="8"/>
  <rect x="24" y="24" width="200" height="8" rx="4" fill="#9B59FF" opacity="0.6"/>
  <rect x="24" y="40" width="120" height="6" rx="3" fill="#9B59FF" opacity="0.3"/>
  <text x="24" y="80" font-family="monospace" font-size="11" fill="#9B59FF" opacity="0.5">List&lt;String&gt;</text>
  <text x="140" y="80" font-family="monospace" font-size="11" fill="#4D8BFF" opacity="0.4">ArrayList</text>
  <rect x="24" y="95" width="352" height="1" fill="#ffffff" opacity="0.05"/>
  <text x="24" y="115" font-family="monospace" font-size="11" fill="#9B59FF" opacity="0.5">Map&lt;K,V&gt;</text>
  <text x="140" y="115" font-family="monospace" font-size="11" fill="#FF8C42" opacity="0.4">HashMap</text>
  <rect x="24" y="130" width="352" height="1" fill="#ffffff" opacity="0.05"/>
  <text x="24" y="150" font-family="monospace" font-size="11" fill="#9B59FF" opacity="0.5">Set&lt;E&gt;</text>
  <text x="140" y="150" font-family="monospace" font-size="11" fill="#4ADE80" opacity="0.4">TreeSet</text>
  <rect x="24" y="175" width="200" height="5" rx="2.5" fill="#ffffff" opacity="0.06"/>
  <rect x="24" y="189" width="260" height="5" rx="2.5" fill="#ffffff" opacity="0.04"/>
  <rect x="24" y="203" width="180" height="5" rx="2.5" fill="#ffffff" opacity="0.05"/>
  <rect x="24" y="240" width="200" height="5" rx="2.5" fill="#ffffff" opacity="0.06"/>
  <rect x="24" y="254" width="140" height="5" rx="2.5" fill="#ffffff" opacity="0.04"/>
</svg>
