<svg xmlns="http://www.w3.org/2000/svg" width="400" height="280" viewBox="0 0 400 280">
  <defs>
    <linearGradient id="g3" x1="0%" y1="0%" x2="100%" y2="100%">
      <stop offset="0%" style="stop-color:#2a1f0a;stop-opacity:1" />
      <stop offset="100%" style="stop-color:#1a1508;stop-opacity:1" />
    </linearGradient>
  </defs>
  <rect width="400" height="280" fill="url(#g3)" rx="8"/>
  <rect x="24" y="24" width="180" height="8" rx="4" fill="#FBBF24" opacity="0.6"/>
  <rect x="24" y="40" width="110" height="6" rx="3" fill="#FBBF24" opacity="0.3"/>
  <!-- Promise chain -->
  <text x="24" y="80" font-family="monospace" font-size="11" fill="#FBBF24" opacity="0.6">async</text>
  <text x="68" y="80" font-family="monospace" font-size="11" fill="#4D8BFF" opacity="0.5">function</text>
  <text x="130" y="80" font-family="monospace" font-size="11" fill="#4ADE80" opacity="0.5">fetchData()</text>
  <!-- Flow arrows -->
  <rect x="100" y="100" width="2" height="30" rx="1" fill="#FBBF24" opacity="0.3"/>
  <text x="110" y="118" font-family="monospace" font-size="10" fill="#FF4D6A" opacity="0.5">await</text>
  <rect x="100" y="140" width="2" height="30" rx="1" fill="#FBBF24" opacity="0.3"/>
  <text x="110" y="158" font-family="monospace" font-size="10" fill="#4ADE80" opacity="0.5">.then()</text>
  <rect x="100" y="180" width="2" height="30" rx="1" fill="#FBBF24" opacity="0.3"/>
  <text x="110" y="198" font-family="monospace" font-size="10" fill="#FF4D6A" opacity="0.5">.catch()</text>
  <!-- Notes -->
  <rect x="220" y="90" width="150" height="110" rx="6" fill="#ffffff" opacity="0.03" stroke="#FBBF24" stroke-width="1" opacity="0.15"/>
  <rect x="232" y="105" width="100" height="5" rx="2.5" fill="#ffffff" opacity="0.08"/>
  <rect x="232" y="117" width="120" height="5" rx="2.5" fill="#ffffff" opacity="0.05"/>
  <rect x="232" y="129" width="80" height="5" rx="2.5" fill="#ffffff" opacity="0.05"/>
  <rect x="232" y="141" width="110" height="5" rx="2.5" fill="#ffffff" opacity="0.05"/>
  <rect x="24" y="240" width="200" height="5" rx="2.5" fill="#ffffff" opacity="0.06"/>
  <rect x="24" y="252" width="140" height="5" rx="2.5" fill="#ffffff" opacity="0.04"/>
</svg>
