<svg xmlns="http://www.w3.org/2000/svg" width="400" height="280" viewBox="0 0 400 280">
  <defs>
    <linearGradient id="g4" x1="0%" y1="0%" x2="100%" y2="100%">
      <stop offset="0%" style="stop-color:#1a1420;stop-opacity:1" />
      <stop offset="100%" style="stop-color:#120e18;stop-opacity:1" />
    </linearGradient>
  </defs>
  <rect width="400" height="280" fill="url(#g4)" rx="8"/>
  <rect x="24" y="24" width="140" height="8" rx="4" fill="#FF8C42" opacity="0.6"/>
  <rect x="24" y="40" width="90" height="6" rx="3" fill="#FF8C42" opacity="0.3"/>
  <!-- Linked list nodes -->
  <rect x="30" y="100" width="60" height="40" rx="6" fill="none" stroke="#FF8C42" stroke-width="1.5" opacity="0.5"/>
  <text x="47" y="124" font-family="monospace" font-size="10" fill="#FF8C42" opacity="0.6">10</text>
  <line x1="90" y1="120" x2="120" y2="120" stroke="#9B59FF" stroke-width="1.5" opacity="0.4"/>
  <polygon points="118,116 124,120 118,124" fill="#9B59FF" opacity="0.4"/>
  <rect x="125" y="100" width="60" height="40" rx="6" fill="none" stroke="#FF8C42" stroke-width="1.5" opacity="0.5"/>
  <text x="142" y="124" font-family="monospace" font-size="10" fill="#FF8C42" opacity="0.6">20</text>
  <line x1="185" y1="120" x2="215" y2="120" stroke="#9B59FF" stroke-width="1.5" opacity="0.4"/>
  <polygon points="213,116 219,120 213,124" fill="#9B59FF" opacity="0.4"/>
  <rect x="220" y="100" width="60" height="40" rx="6" fill="none" stroke="#FF8C42" stroke-width="1.5" opacity="0.5"/>
  <text x="237" y="124" font-family="monospace" font-size="10" fill="#FF8C42" opacity="0.6">30</text>
  <line x1="280" y1="120" x2="310" y2="120" stroke="#9B59FF" stroke-width="1.5" opacity="0.4"/>
  <text x="314" y="124" font-family="monospace" font-size="10" fill="#FF4D6A" opacity="0.5">NULL</text>
  <!-- Labels -->
  <text x="40" y="88" font-family="monospace" font-size="9" fill="#4ADE80" opacity="0.5">HEAD</text>
  <!-- Notes lines -->
  <rect x="24" y="170" width="220" height="5" rx="2.5" fill="#ffffff" opacity="0.06"/>
  <rect x="24" y="184" width="180" height="5" rx="2.5" fill="#ffffff" opacity="0.04"/>
  <rect x="24" y="198" width="250" height="5" rx="2.5" fill="#ffffff" opacity="0.05"/>
  <rect x="24" y="212" width="160" height="5" rx="2.5" fill="#ffffff" opacity="0.04"/>
  <rect x="24" y="240" width="200" height="5" rx="2.5" fill="#ffffff" opacity="0.06"/>
  <rect x="24" y="254" width="140" height="5" rx="2.5" fill="#ffffff" opacity="0.04"/>
</svg>
