<svg xmlns="http://www.w3.org/2000/svg" width="400" height="280" viewBox="0 0 400 280">
  <defs>
    <linearGradient id="g2" x1="0%" y1="0%" x2="100%" y2="100%">
      <stop offset="0%" style="stop-color:#1a1f35;stop-opacity:1" />
      <stop offset="100%" style="stop-color:#0f1225;stop-opacity:1" />
    </linearGradient>
  </defs>
  <rect width="400" height="280" fill="url(#g2)" rx="8"/>
  <rect x="24" y="24" width="140" height="8" rx="4" fill="#4D8BFF" opacity="0.6"/>
  <rect x="24" y="40" width="90" height="6" rx="3" fill="#4D8BFF" opacity="0.3"/>
  <!-- Decorator pattern -->
  <text x="24" y="80" font-family="monospace" font-size="12" fill="#9B59FF" opacity="0.6">@decorator</text>
  <text x="24" y="100" font-family="monospace" font-size="12" fill="#4D8BFF" opacity="0.5">def</text>
  <text x="55" y="100" font-family="monospace" font-size="12" fill="#4ADE80" opacity="0.5">wrapper</text>
  <text x="115" y="100" font-family="monospace" font-size="12" fill="#ffffff" opacity="0.3">(func):</text>
  <rect x="40" y="112" width="180" height="5" rx="2.5" fill="#ffffff" opacity="0.06"/>
  <rect x="40" y="124" width="140" height="5" rx="2.5" fill="#ffffff" opacity="0.06"/>
  <text x="40" y="152" font-family="monospace" font-size="12" fill="#FF4D6A" opacity="0.5">return</text>
  <text x="90" y="152" font-family="monospace" font-size="12" fill="#4ADE80" opacity="0.5">inner</text>
  <!-- Box decorations -->
  <rect x="24" y="180" width="352" height="70" rx="6" fill="#ffffff" opacity="0.03" stroke="#4D8BFF" stroke-width="1" opacity="0.15"/>
  <rect x="36" y="195" width="120" height="5" rx="2.5" fill="#ffffff" opacity="0.08"/>
  <rect x="36" y="207" width="200" height="5" rx="2.5" fill="#ffffff" opacity="0.05"/>
  <rect x="36" y="219" width="160" height="5" rx="2.5" fill="#ffffff" opacity="0.05"/>
  <rect x="36" y="231" width="80" height="5" rx="2.5" fill="#ffffff" opacity="0.05"/>
</svg>
